<svg width="46.684" height="31.196" xmlns="http://www.w3.org/2000/svg">

 <g>
  <title>Layer 1</title>
  <path d="m6.6,0l0,0.836l3.3,0l0,22.176c0,6.16 -0.44,7.392 -2.772,7.392c-1.272,-0.004 -2.156,-0.616 -2.156,-1.54a2.231,2.231 0 0 1 0.4,-1.144l1.712,0a6.934,6.934 0 0 0 0.484,-2.376c0,-1.936 -1.1,-3.388 -3.652,-3.388a3.71,3.71 0 0 0 -3.916,4.044c0,3.3 3.036,5.2 7.744,5.2c6.952,0 10.736,-3.26 10.736,-11.356l0,-19.008l2.42,0l0,-0.836l-14.3,0zm15.928,0l0,0.968l2.6,0l0,28.864l-2.6,0l0,0.968l23.32,0l0.836,-10.3l-0.928,0c-2.6,5.368 -5.016,9.328 -10.472,9.328l-1.58,0l0,-28.86l4.664,0l0,-0.968l-15.84,0z" data-name="Path 3" id="Path_3"/>
  <rect id="svg_2" height="33.83272" width="49.7491" y="-0.02672" x="-0.32424" fill="#ffffff"/>
  <text transform="matrix(1.6553 0 0 1.96309 0.384938 -35.5787)" stroke="null" xml:space="preserve" text-anchor="start" font-family="Noto Sans JP" font-size="24" stroke-width="0" fill="#000000" id="svg_1" y="34.03389" x="-0.62545">RT</text>
 </g>
</svg>